<svg xmlns="http://www.w3.org/2000/svg" width="24.143" height="24.143" viewBox="0 0 24.143 24.143"><defs><style>.a{fill:#255ca0;}</style></defs><g transform="translate(1.462)"><path class="a" d="M50.1,0a2.124,2.124,0,0,0-2.122,2.122A2.1,2.1,0,0,0,48.4,3.385L44.942,7.14a2.056,2.056,0,0,0-1.677.29L40.8,5.58a2.091,2.091,0,0,0,.106-.629,2.122,2.122,0,0,0-4.244,0,2.091,2.091,0,0,0,.106.629L34.3,7.43a2.209,2.209,0,1,0,.841,1.136l2.468-1.85a2.111,2.111,0,0,0,2.349,0l2.468,1.85a2.091,2.091,0,0,0-.106.629,2.122,2.122,0,0,0,4.244,0,2.1,2.1,0,0,0-.426-1.263L49.6,4.177a2.1,2.1,0,0,0,.5.067A2.122,2.122,0,0,0,50.1,0Z" transform="translate(-31)"/></g><g transform="translate(7.12 11.317)"><path class="a" d="M154.537,240h-2.829a.707.707,0,0,0-.707.707V250h4.244v-9.29A.707.707,0,0,0,154.537,240Z" transform="translate(-151 -240)"/></g><g transform="translate(12.779 14.147)"><path class="a" d="M274.537,300h-2.829a.707.707,0,0,0-.707.707v6.46h4.244v-6.46A.707.707,0,0,0,274.537,300Z" transform="translate(-271 -300)"/></g><g transform="translate(18.438 8.488)"><path class="a" d="M394.537,180h-2.829a.707.707,0,0,0-.707.707v12.119h4.244V180.707A.707.707,0,0,0,394.537,180Z" transform="translate(-391 -180)"/></g><g transform="translate(1.462 15.561)"><path class="a" d="M34.537,330H31.707a.707.707,0,0,0-.707.707v5.046h4.244v-5.046A.707.707,0,0,0,34.537,330Z" transform="translate(-31 -330)"/></g><g transform="translate(0 22.729)"><path class="a" d="M23.436,482H.707a.707.707,0,1,0,0,1.415H23.436a.707.707,0,1,0,0-1.415Z" transform="translate(0 -482)"/></g></svg>