<svg xmlns="http://www.w3.org/2000/svg" width="23.619" height="25.766" viewBox="0 0 23.619 25.766"><defs><style>.a{fill:#34699f;}</style></defs><path class="a" d="M.535,25.621a1.073,1.073,0,0,0,1.071,0l6.983-3.989,6.983,3.99a1.074,1.074,0,0,0,1.606-.932V8.589h5.368A1.074,1.074,0,0,0,23.62,7.515V4.294A4.3,4.3,0,0,0,19.325,0H3.222a1.074,1.074,0,0,0,0,2.147h12.39a4.262,4.262,0,0,0-.581,2.147V22.843L9.122,19.466a1.072,1.072,0,0,0-1.065,0L2.148,22.843V3.221A1.075,1.075,0,0,1,3.222,2.147,1.074,1.074,0,0,0,3.222,0,3.224,3.224,0,0,0,0,3.221V24.692a1.072,1.072,0,0,0,.535.928ZM21.472,4.294V6.442H17.178V4.294a2.147,2.147,0,1,1,4.294,0Zm0,0" transform="translate(-0.001)"/><path class="a" d="M71.515,112H65.074a1.074,1.074,0,0,0,0,2.147h6.442a1.074,1.074,0,0,0,0-2.147Zm0,0" transform="translate(-59.706 -104.485)"/><path class="a" d="M71.515,168H65.074a1.074,1.074,0,0,0,0,2.147h6.442a1.074,1.074,0,0,0,0-2.147Zm0,0" transform="translate(-59.706 -156.727)"/></svg>