<svg xmlns="http://www.w3.org/2000/svg" width="35" height="35" viewBox="0 0 35 35"><defs><style>.a{fill:#255ca0;}.b{fill:#fff;}</style></defs><g transform="translate(0.307 0.009)"><circle class="a" cx="17.5" cy="17.5" r="17.5" transform="translate(-0.307 -0.009)"/><g transform="translate(8.522 10.329)"><g transform="translate(0 0)"><path class="b" d="M15.913,49.619H14.027l-1.041-1.572A2.164,2.164,0,0,0,11.2,47.1H6.876a2.164,2.164,0,0,0-1.788.943L4.047,49.619H2.161A2.155,2.155,0,0,0,0,51.78V59.4a2.155,2.155,0,0,0,2.161,2.161H15.913A2.155,2.155,0,0,0,18.074,59.4V51.78A2.155,2.155,0,0,0,15.913,49.619ZM9.037,59.795a4.862,4.862,0,1,1,4.872-4.852A4.871,4.871,0,0,1,9.037,59.795Zm6.6-7.131h-.864a.639.639,0,0,1,0-1.277h.786a.638.638,0,0,1,.668.609A.622.622,0,0,1,15.638,52.664Z" transform="translate(0 -47.104)"/></g><g transform="translate(6.326 5.127)"><path class="b" d="M167.575,180.736a2.7,2.7,0,1,0,2.711,2.691A2.716,2.716,0,0,0,167.575,180.736Z" transform="translate(-164.864 -180.736)"/></g></g></g></svg>