<svg xmlns="http://www.w3.org/2000/svg" width="45" height="46" viewBox="0 0 45 46">
  <g id="Group_795" data-name="Group 795" transform="translate(-217 -1086)">
    <ellipse id="Ellipse_391" data-name="Ellipse 391" cx="22.5" cy="23" rx="22.5" ry="23" transform="translate(217 1086)" fill="#e8e6fb"/>
    <g id="idea" transform="translate(226.973 1097.772)">
      <g id="Group_642" data-name="Group 642" transform="translate(0 7.947)">
        <g id="Group_641" data-name="Group 641">
          <path id="Path_2591" data-name="Path 2591" d="M1.976,180.985H.659a.659.659,0,1,0,0,1.317H1.976a.659.659,0,1,0,0-1.317Z" transform="translate(0 -180.985)" fill="#6d5dea"/>
        </g>
      </g>
      <g id="Group_644" data-name="Group 644" transform="translate(0.237 3.529)">
        <g id="Group_643" data-name="Group 643">
          <path id="Path_2592" data-name="Path 2592" d="M7.451,81.505l-.931-.931a.659.659,0,0,0-.931.931l.931.931a.659.659,0,0,0,.931-.931Z" transform="translate(-5.395 -80.381)" fill="#6d5dea"/>
        </g>
      </g>
      <g id="Group_646" data-name="Group 646" transform="translate(0.237 11.434)">
        <g id="Group_645" data-name="Group 645">
          <path id="Path_2593" data-name="Path 2593" d="M7.451,260.573a.658.658,0,0,0-.931,0l-.931.931a.659.659,0,0,0,.931.931l.931-.931A.658.658,0,0,0,7.451,260.573Z" transform="translate(-5.395 -260.38)" fill="#6d5dea"/>
        </g>
      </g>
      <g id="Group_648" data-name="Group 648" transform="translate(19.849 7.947)">
        <g id="Group_647" data-name="Group 647">
          <path id="Path_2594" data-name="Path 2594" d="M453.976,180.985h-1.317a.659.659,0,1,0,0,1.317h1.317a.659.659,0,0,0,0-1.317Z" transform="translate(-452 -180.985)" fill="#6d5dea"/>
        </g>
      </g>
      <g id="Group_650" data-name="Group 650" transform="translate(19.998 3.529)">
        <g id="Group_649" data-name="Group 649">
          <path id="Path_2595" data-name="Path 2595" d="M457.451,80.573a.658.658,0,0,0-.931,0l-.931.931a.659.659,0,0,0,.931.931l.931-.931A.658.658,0,0,0,457.451,80.573Z" transform="translate(-455.395 -80.38)" fill="#6d5dea"/>
        </g>
      </g>
      <g id="Group_652" data-name="Group 652" transform="translate(19.998 11.434)">
        <g id="Group_651" data-name="Group 651">
          <path id="Path_2596" data-name="Path 2596" d="M457.451,261.505l-.931-.931a.659.659,0,0,0-.931.931l.931.931a.659.659,0,1,0,.931-.931Z" transform="translate(-455.395 -260.381)" fill="#6d5dea"/>
        </g>
      </g>
      <g id="Group_654" data-name="Group 654" transform="translate(3.338 0)">
        <g id="Group_653" data-name="Group 653">
          <path id="Path_2597" data-name="Path 2597" d="M88.891,1.781A7.919,7.919,0,0,0,78,13.205a5.066,5.066,0,0,1,1.235,2.661h2.039V9.938c0-.255,1.932-4.019,2.046-4.247a.686.686,0,0,1,1.178,0c.119.239,2.046,4,2.046,4.247v5.928h2.041a5.274,5.274,0,0,1,1.272-2.7,7.885,7.885,0,0,0,1.957-5.2A7.964,7.964,0,0,0,88.891,1.781Z" transform="translate(-76.005 -0.014)" fill="#6d5dea"/>
        </g>
      </g>
      <g id="Group_656" data-name="Group 656" transform="translate(9.924 10.963)">
        <g id="Group_655" data-name="Group 655">
          <path id="Path_2598" data-name="Path 2598" d="M227.317,249.893a4.2,4.2,0,0,1-1.317-.219v4.888h2.635v-4.888A4.2,4.2,0,0,1,227.317,249.893Z" transform="translate(-226 -249.674)" fill="#6d5dea"/>
        </g>
      </g>
      <g id="Group_658" data-name="Group 658" transform="translate(6.631 17.169)">
        <g id="Group_657" data-name="Group 657">
          <path id="Path_2599" data-name="Path 2599" d="M151,390.986v.659a1.978,1.978,0,0,0,1.976,1.976h5.27a1.978,1.978,0,0,0,1.976-1.976v-.659Z" transform="translate(-151 -390.986)" fill="#6d5dea"/>
        </g>
      </g>
      <g id="Group_660" data-name="Group 660" transform="translate(10.153 7.444)">
        <g id="Group_659" data-name="Group 659">
          <path id="Path_2600" data-name="Path 2600" d="M232.3,169.53l-1.089,2.177a2.849,2.849,0,0,0,2.177,0Z" transform="translate(-231.211 -169.53)" fill="#6d5dea"/>
        </g>
      </g>
      <g id="Group_662" data-name="Group 662" transform="translate(8.07 21.121)">
        <g id="Group_661" data-name="Group 661">
          <path id="Path_2601" data-name="Path 2601" d="M183.763,480.986a2.013,2.013,0,0,0,1.855,1.361h2.635a2.013,2.013,0,0,0,1.855-1.361Z" transform="translate(-183.763 -480.986)" fill="#6d5dea"/>
        </g>
      </g>
    </g>
  </g>
</svg>
