<svg xmlns="http://www.w3.org/2000/svg" width="21.637" height="28.405" viewBox="0 0 21.637 28.405"><defs><style>.a{fill:#255ca0;}</style></defs><g transform="translate(4.993)"><path class="a" d="M160.154,1.664h-.974a2.5,2.5,0,0,0-4.709,0H153.5a2.5,2.5,0,0,0-2.5,2.5.832.832,0,0,0,.832.832h9.986a.832.832,0,0,0,.832-.832A2.5,2.5,0,0,0,160.154,1.664Z" transform="translate(-151)"/></g><g transform="translate(0 3.329)"><path class="a" d="M80.14,60h-.916a4.16,4.16,0,0,1,.084.832,2.5,2.5,0,0,1-2.5,2.5H66.825a2.5,2.5,0,0,1-2.5-2.5A4.161,4.161,0,0,1,64.413,60H63.5A2.5,2.5,0,0,0,61,62.5V82.58a2.5,2.5,0,0,0,2.5,2.5H80.14a2.5,2.5,0,0,0,2.5-2.5V62.5A2.5,2.5,0,0,0,80.14,60ZM69.322,79.973H65.993a.832.832,0,0,1,0-1.664h3.329a.832.832,0,0,1,0,1.664Zm0-5.825H65.993a.832.832,0,1,1,0-1.664h3.329a.832.832,0,1,1,0,1.664Zm0-5.825H65.993a.832.832,0,0,1,0-1.664h3.329a.832.832,0,0,1,0,1.664ZM77.4,80.216a.832.832,0,1,1-1.177,1.177l-1.076-1.076-1.076,1.076a.832.832,0,0,1-1.177-1.177L73.97,79.14l-1.076-1.076a.832.832,0,0,1,1.177-1.177l1.076,1.076,1.076-1.076A.832.832,0,1,1,77.4,78.064L76.324,79.14Zm.832-7.977-2.5,2.5a.832.832,0,0,1-1.177,0l-1.664-1.664a.832.832,0,0,1,1.177-1.177l1.076,1.076,1.908-1.908a.832.832,0,1,1,1.177,1.177Zm0-4.993-2.5,2.5a.832.832,0,0,1-1.177,0l-1.664-1.664A.832.832,0,0,1,74.071,66.9l1.076,1.076,1.908-1.908a.832.832,0,1,1,1.177,1.177Z" transform="translate(-61 -60)"/></g></svg>