<svg xmlns="http://www.w3.org/2000/svg" width="45" height="45" viewBox="0 0 45 45">
  <g id="Group_793" data-name="Group 793" transform="translate(-15 -1019)">
    <circle id="Ellipse_388" data-name="Ellipse 388" cx="22.5" cy="22.5" r="22.5" transform="translate(15 1019)" fill="#e8f2fa"/>
    <g id="photos" transform="translate(26.164 1030.808)">
      <path id="Path_2585" data-name="Path 2585" d="M10.249,81.99A4.049,4.049,0,0,1,6.2,77.946V64.406l-4.6,1.052A2.141,2.141,0,0,0,.092,68.075L4.033,82.789A2.162,2.162,0,0,0,6.107,84.37a2.092,2.092,0,0,0,.532-.068l9.591-2.312Zm0,0" transform="translate(-0.021 -61.534)" fill="#28ade4"/>
      <path id="Path_2586" data-name="Path 2586" d="M236.583,110.474a1.9,1.9,0,1,0-1.9-1.9A1.9,1.9,0,0,0,236.583,110.474Zm0,0" transform="translate(-224.214 -101.911)" fill="#28ade4"/>
      <path id="Path_2587" data-name="Path 2587" d="M185.9,2.854A2.854,2.854,0,0,0,183.049,0h-9.515a2.854,2.854,0,0,0-2.854,2.854v13.32a2.854,2.854,0,0,0,2.854,2.854h9.515a2.854,2.854,0,0,0,2.854-2.854ZM173.534,1.9h9.515a.952.952,0,0,1,.951.951V8.981l-.723-.723a1.668,1.668,0,0,0-2.36,0l-4.529,4.529-1.2-1.2a1.668,1.668,0,0,0-2.36,0l-.247.247V2.854a.952.952,0,0,1,.951-.951Zm0,0" transform="translate(-163.069)" fill="#28ade4"/>
    </g>
  </g>
</svg>
