<svg xmlns="http://www.w3.org/2000/svg" width="24.143" height="22.132" viewBox="0 0 24.143 22.132"><defs><style>.a{fill:#255ca0;}</style></defs><path class="a" d="M6.287,159.006a3.767,3.767,0,0,1-3.563-2.566l-.035-.116a3.672,3.672,0,0,1-.174-1.09v-6.859L.074,156.522a2.285,2.285,0,0,0,1.6,2.772l15.556,4.166a2.307,2.307,0,0,0,.58.074,2.243,2.243,0,0,0,2.174-1.645l.906-2.882Zm0,0" transform="translate(0 -141.401)"/><path class="a" d="M151.332,68.516A2.012,2.012,0,1,0,149.32,66.5,2.014,2.014,0,0,0,151.332,68.516Zm0,0" transform="translate(-142.279 -61.474)"/><path class="a" d="M102.925.492H87.835A2.519,2.519,0,0,0,85.32,3.007V14.073a2.519,2.519,0,0,0,2.515,2.515h15.09a2.519,2.519,0,0,0,2.515-2.515V3.007A2.519,2.519,0,0,0,102.925.492ZM87.835,2.5h15.09a.5.5,0,0,1,.5.5v7.142L100.25,6.441A1.8,1.8,0,0,0,98.9,5.822a1.758,1.758,0,0,0-1.344.635l-3.736,4.485L92.6,9.727a1.766,1.766,0,0,0-2.495,0L87.332,12.5v-9.5A.5.5,0,0,1,87.835,2.5Zm0,0" transform="translate(-81.297 -0.492)"/></svg>