<svg xmlns="http://www.w3.org/2000/svg" width="24.143" height="24.143" viewBox="0 0 24.143 24.143"><defs><style>.a{fill:#255ca0;}</style></defs><path class="a" d="M15.089,13.078a1.006,1.006,0,0,0-1.006,1.006v4.024a1.007,1.007,0,0,1-1.006,1.006H10.06V4.024A2.027,2.027,0,0,0,8.69,2.112l-.3-.1h4.686a1.007,1.007,0,0,1,1.006,1.006V6.036a1.006,1.006,0,1,0,2.012,0V3.018A3.022,3.022,0,0,0,13.078,0H2.263a.786.786,0,0,0-.108.022C2.107.018,2.061,0,2.012,0A2.014,2.014,0,0,0,0,2.012V20.119a2.027,2.027,0,0,0,1.37,1.912L7.424,24.05a2.083,2.083,0,0,0,.624.094,2.014,2.014,0,0,0,2.012-2.012V21.125h3.018A3.022,3.022,0,0,0,16.1,18.107V14.084a1.006,1.006,0,0,0-1.006-1.006Z" transform="translate(0)"/><path class="a" d="M23.771,9.319,19.747,5.295a1.006,1.006,0,0,0-1.717.711V9.024H14.006a1.006,1.006,0,1,0,0,2.012H18.03v3.018a1.006,1.006,0,0,0,1.717.711l4.024-4.024A1,1,0,0,0,23.771,9.319Z" transform="translate(0.078 0.03)"/></svg>