<svg xmlns="http://www.w3.org/2000/svg" width="24.143" height="24.143" viewBox="0 0 24.143 24.143"><defs><style>.a{fill:#255ca0;}</style></defs><path class="a" d="M4.053,23.589a2.008,2.008,0,0,0-1.415-1.911A9.594,9.594,0,0,1,3.2,19.832a.4.4,0,1,0-.741-.314,10.379,10.379,0,0,0-.627,2.08,2,2,0,0,0,0,3.982,10.371,10.371,0,0,0,.627,2.08.4.4,0,1,0,.741-.314A9.594,9.594,0,0,1,2.638,25.5,2.006,2.006,0,0,0,4.053,23.589Z" transform="translate(-0.029 -11.517)"/><path class="a" d="M54.053,23.59A2.007,2.007,0,0,0,52.248,21.6a10.373,10.373,0,0,0-.628-2.08.4.4,0,1,0-.741.314,9.566,9.566,0,0,1,.565,1.846,2,2,0,0,0,0,3.823,9.594,9.594,0,0,1-.565,1.846.4.4,0,1,0,.741.314,10.4,10.4,0,0,0,.628-2.08,2.009,2.009,0,0,0,1.806-1.992Z" transform="translate(-29.91 -11.518)"/><path class="a" d="M46.2,11.673a.4.4,0,0,0,.637-.492,10.531,10.531,0,0,0-1.9-1.9.4.4,0,1,0-.492.637A9.721,9.721,0,0,1,46.2,11.673Z" transform="translate(-26.48 -5.498)"/><path class="a" d="M27.376,50.85a9.615,9.615,0,0,1-1.846.565,2,2,0,0,0-3.823,0,9.558,9.558,0,0,1-1.846-.565.4.4,0,1,0-.314.741,10.425,10.425,0,0,0,2.08.628,2,2,0,0,0,3.982,0,10.425,10.425,0,0,0,2.08-.628.4.4,0,0,0-.313-.741Z" transform="translate(-11.547 -29.881)"/><path class="a" d="M46.2,44.415a9.7,9.7,0,0,1-1.752,1.753.4.4,0,1,0,.492.637,10.494,10.494,0,0,0,1.9-1.9.4.4,0,1,0-.637-.492Z" transform="translate(-26.484 -26.45)"/><path class="a" d="M9.956,44.422a.4.4,0,0,0-.637.492,10.531,10.531,0,0,0,1.9,1.9.4.4,0,1,0,.492-.637A9.721,9.721,0,0,1,9.956,44.422Z" transform="translate(-5.531 -26.454)"/><path class="a" d="M19.706,3.206a.4.4,0,0,0,.157-.032,9.615,9.615,0,0,1,1.846-.565,2,2,0,0,0,3.823,0,9.558,9.558,0,0,1,1.846.565.4.4,0,0,0,.313-.741,10.425,10.425,0,0,0-2.08-.628,2,2,0,0,0-3.982,0,10.425,10.425,0,0,0-2.08.628.4.4,0,0,0,.157.773Z" transform="translate(-11.548 0)"/><path class="a" d="M9.632,11.835a.4.4,0,0,0,.319-.157A9.7,9.7,0,0,1,11.7,9.926a.4.4,0,1,0-.492-.637,10.494,10.494,0,0,0-1.9,1.9.4.4,0,0,0,.318.648Z" transform="translate(-5.527 -5.501)"/><path class="a" d="M20.9,19.278l-2.319-1.16-2.319,1.16,2.319,1.16Z" transform="translate(-9.732 -10.828)"/><path class="a" d="M33.444,34.618,31.03,35.825v2.319l2.414-1.207Z" transform="translate(-18.556 -20.688)"/><path class="a" d="M32.266,19.278l2.319,1.16,2.319-1.16-2.319-1.16Z" transform="translate(-19.294 -10.828)"/><path class="a" d="M39.03,26.145l2.414-1.207V22.618L39.03,23.825Z" transform="translate(-23.337 -13.517)"/><path class="a" d="M25.444,22.618,23.03,23.825v2.319l2.414-1.207Z" transform="translate(-13.775 -13.517)"/><path class="a" d="M33.444,23.825,31.03,22.618v2.319l2.414,1.207Z" transform="translate(-18.556 -13.517)"/><path class="a" d="M28.9,31.278l-2.319-1.16-2.319,1.16,2.319,1.16Z" transform="translate(-14.513 -17.999)"/><path class="a" d="M23.03,36.937l2.414,1.207V35.825L23.03,34.618Z" transform="translate(-13.775 -20.688)"/><path class="a" d="M15.03,24.937l2.414,1.207V23.825L15.03,22.618Z" transform="translate(-8.994 -13.517)"/></svg>