<svg xmlns="http://www.w3.org/2000/svg" width="24.143" height="24.143" viewBox="0 0 24.143 24.143"><defs><style>.a{fill:#255ca0;}</style></defs><path class="a" d="M31,278.942c0,.124.5.75,2.82,1.323l.3.075.148.274a3.53,3.53,0,0,0,3.095,1.864h1.416l.211.233a3.568,3.568,0,0,0,5.235,0l.211-.233h1.416a3.53,3.53,0,0,0,3.095-1.864l.148-.274.3-.075c2.318-.573,2.82-1.2,2.82-1.323,0-.266-1.427-1.305-5.759-1.834a4.952,4.952,0,0,1-9.7,0C32.427,277.637,31,278.676,31,278.942Z" transform="translate(-29.538 -264.041)"/><path class="a" d="M1.454,139.263a17.434,17.434,0,0,1,5.711-1.457,4.9,4.9,0,0,1,.268-1.241l-5.193-4.154a4.162,4.162,0,0,0-.786,6.852Z" transform="translate(0 -126.167)"/><path class="a" d="M310.8,38.668l5.164-4.132A4.241,4.241,0,0,0,311.79,31a4.089,4.089,0,0,0-.785.077l-1.651,6.292A4.964,4.964,0,0,1,310.8,38.668Z" transform="translate(-294.767 -29.538)"/><path class="a" d="M184.537,188.073A3.537,3.537,0,1,0,181,184.537,3.541,3.541,0,0,0,184.537,188.073Zm0-5.659v1.415a.708.708,0,0,0-.707.707h-1.415A2.124,2.124,0,0,1,184.537,182.415Z" transform="translate(-172.465 -172.465)"/><path class="a" d="M69.124,37.369l-1.651-6.292A4.09,4.09,0,0,0,66.688,31a4.241,4.241,0,0,0-4.172,3.536l5.164,4.132A4.963,4.963,0,0,1,69.124,37.369Z" transform="translate(-59.568 -29.538)"/><path class="a" d="M354.662,137.8a17.434,17.434,0,0,1,5.711,1.457,4.162,4.162,0,0,0-.786-6.852l-5.192,4.154A4.9,4.9,0,0,1,354.662,137.8Z" transform="translate(-337.682 -126.165)"/><path class="a" d="M20.493,318.622a4.936,4.936,0,0,1-4.178,2.329h-.8a4.9,4.9,0,0,1-6.887,0h-.8a4.936,4.936,0,0,1-4.178-2.329C1.259,317.987,0,317.106,0,316c0,5.179,5.751,9.242,10.657,9.242h2.829c4.906,0,10.657-4.064,10.657-9.242C24.143,317.106,22.885,317.987,20.493,318.622Z" transform="translate(0 -301.099)"/><path class="a" d="M199.234,7.12a4.9,4.9,0,0,1,1.2.163l1.612-6.191a4.156,4.156,0,0,0-5.619,0l1.612,6.191A4.9,4.9,0,0,1,199.234,7.12Z" transform="translate(-187.163)"/></svg>