<svg xmlns="http://www.w3.org/2000/svg" width="45" height="44" viewBox="0 0 45 44">
  <g id="Group_790" data-name="Group 790" transform="translate(-217 -956)">
    <ellipse id="Ellipse_387" data-name="Ellipse 387" cx="22.5" cy="22" rx="22.5" ry="22" transform="translate(217 956)" fill="#ffefe6"/>
    <g id="pearl" transform="translate(227.334 967.136)">
      <path id="Path_2577" data-name="Path 2577" d="M31,278.819c0,.116.468.7,2.631,1.235l.283.07.139.256a3.294,3.294,0,0,0,2.888,1.739h1.321l.2.218a3.33,3.33,0,0,0,4.885,0l.2-.218h1.321a3.294,3.294,0,0,0,2.888-1.739l.139-.256.283-.07c2.163-.535,2.631-1.119,2.631-1.235,0-.248-1.331-1.218-5.374-1.711a4.621,4.621,0,0,1-9.053,0C32.331,277.6,31,278.572,31,278.819Z" transform="translate(-29.636 -264.914)" fill="#ee7421"/>
      <path id="Path_2578" data-name="Path 2578" d="M1.356,138.805a16.27,16.27,0,0,1,5.329-1.36,4.572,4.572,0,0,1,.25-1.158L2.09,132.411a3.884,3.884,0,0,0-.733,6.394Z" transform="translate(0 -126.584)" fill="#ee7421"/>
      <path id="Path_2579" data-name="Path 2579" d="M310.7,38.156l4.819-3.856a3.958,3.958,0,0,0-3.894-3.3,3.816,3.816,0,0,0-.732.072l-1.54,5.872A4.632,4.632,0,0,1,310.7,38.156Z" transform="translate(-295.742 -29.636)" fill="#ee7421"/>
      <path id="Path_2580" data-name="Path 2580" d="M184.3,187.6a3.3,3.3,0,1,0-3.3-3.3A3.3,3.3,0,0,0,184.3,187.6Zm0-5.281v1.32a.661.661,0,0,0-.66.66h-1.32A1.982,1.982,0,0,1,184.3,182.32Z" transform="translate(-173.035 -173.035)" fill="#ee7421"/>
      <path id="Path_2581" data-name="Path 2581" d="M68.682,36.944l-1.54-5.872A3.817,3.817,0,0,0,66.41,31a3.958,3.958,0,0,0-3.894,3.3l4.819,3.855A4.631,4.631,0,0,1,68.682,36.944Z" transform="translate(-59.765 -29.636)" fill="#ee7421"/>
      <path id="Path_2582" data-name="Path 2582" d="M354.644,137.443a16.269,16.269,0,0,1,5.329,1.36,3.884,3.884,0,0,0-.733-6.394l-4.846,3.877A4.572,4.572,0,0,1,354.644,137.443Z" transform="translate(-338.799 -126.582)" fill="#ee7421"/>
      <path id="Path_2583" data-name="Path 2583" d="M19.124,318.447a4.607,4.607,0,0,1-3.9,2.174h-.747a4.571,4.571,0,0,1-6.427,0H7.3a4.607,4.607,0,0,1-3.9-2.174C1.175,317.855,0,317.032,0,316c0,4.833,5.366,8.625,9.945,8.625h2.64c4.579,0,9.945-3.792,9.945-8.625C22.53,317.032,21.356,317.855,19.124,318.447Z" transform="translate(0 -302.095)" fill="#ee7421"/>
      <path id="Path_2584" data-name="Path 2584" d="M199.047,6.645a4.572,4.572,0,0,1,1.118.152l1.5-5.777a3.879,3.879,0,0,0-5.243,0l1.5,5.777A4.572,4.572,0,0,1,199.047,6.645Z" transform="translate(-187.781 0)" fill="#ee7421"/>
    </g>
  </g>
</svg>
