<svg xmlns="http://www.w3.org/2000/svg" width="45" height="45" viewBox="0 0 45 45">
  <g id="Group_788" data-name="Group 788" transform="translate(-15 -893)">
    <circle id="Ellipse_384" data-name="Ellipse 384" cx="22.5" cy="22.5" r="22.5" transform="translate(15 893)" fill="#f0eaf8"/>
    <g id="book" transform="translate(26.164 904.563)">
      <path id="Path_2564" data-name="Path 2564" d="M126.934,0a5.927,5.927,0,0,0-3.055,11.01,5.66,5.66,0,0,1,2.462,3.125.648.648,0,0,0,.616.315.749.749,0,0,0,.616-.426,5.518,5.518,0,0,1,2.418-3.016A5.927,5.927,0,0,0,126.934,0Zm0,9.231a.659.659,0,1,1,.659-.659A.659.659,0,0,1,126.934,9.231Zm.668-2.753a.715.715,0,0,1-.663.717.616.616,0,0,1-.664-.6,1.373,1.373,0,0,1,.882-1.357.66.66,0,1,0-.882-.621.659.659,0,1,1-1.319,0A1.978,1.978,0,1,1,127.6,6.478Z" transform="translate(-115.681 0)" fill="#9f5bce"/>
      <path id="Path_2565" data-name="Path 2565" d="M21.846,150h-.659v11.3a1.98,1.98,0,0,1-1.978,1.978H13.118a1.979,1.979,0,0,1-3.731,0H3.3A1.98,1.98,0,0,1,1.319,161.3V150H.659a.659.659,0,0,0-.659.659v13.275a.659.659,0,0,0,.659.659H8.342l1.125,1.126a.659.659,0,0,0,.466.193h2.637a.659.659,0,0,0,.466-.193l1.126-1.126h7.683a.659.659,0,0,0,.659-.659V150.659A.659.659,0,0,0,21.846,150Z" transform="translate(0 -143.407)" fill="#9f5bce"/>
      <g id="Group_625" data-name="Group 625" transform="translate(2.681 3.956)">
        <path id="Path_2566" data-name="Path 2566" d="M67.756,100.679a4.46,4.46,0,0,0-1.916-2.494,7.3,7.3,0,0,1-3.521-6.207,6.755,6.755,0,0,1,.245-1.854c.011-.043.031-.082.043-.124h-.947a.659.659,0,0,0-.659.659v13.275a.659.659,0,0,0,.659.659h6.593a.66.66,0,0,1,.659.659V101.7A1.862,1.862,0,0,1,67.756,100.679Z" transform="translate(-61 -90)" fill="#9f5bce"/>
        <path id="Path_2567" data-name="Path 2567" d="M278.253,90H277.3c.017.059.044.112.059.172a6.62,6.62,0,0,1,.232,1.806,7.292,7.292,0,0,1-3.514,6.2,4.387,4.387,0,0,0-1.914,2.464A2.1,2.1,0,0,1,271,101.686v3.567a.66.66,0,0,1,.659-.659h6.593a.659.659,0,0,0,.659-.659V90.659A.659.659,0,0,0,278.253,90Z" transform="translate(-261.769 -90)" fill="#9f5bce"/>
      </g>
    </g>
  </g>
</svg>
