<svg xmlns="http://www.w3.org/2000/svg" width="45" height="46" viewBox="0 0 45 46">
  <g id="Group_797" data-name="Group 797" transform="translate(-15 -1153)">
    <ellipse id="Ellipse_392" data-name="Ellipse 392" cx="22.5" cy="23" rx="22.5" ry="23" transform="translate(15 1153)" fill="#ffefe6"/>
    <g id="statistics" transform="translate(26.995 1164.737)">
      <path id="Path_2602" data-name="Path 2602" d="M32.971,10.51a1.961,1.961,0,0,0,1.364-.554l1.944.972a1.931,1.931,0,0,0-.024.239,1.971,1.971,0,0,0,3.941,0,1.947,1.947,0,0,0-.2-.844l2.638-2.638a1.947,1.947,0,0,0,.844.2,1.973,1.973,0,0,0,1.971-1.971,1.941,1.941,0,0,0-.1-.584L47.645,3.61a1.969,1.969,0,1,0-.88-1.639,1.941,1.941,0,0,0,.1.584L44.571,4.273a1.962,1.962,0,0,0-2.864,2.483L39.07,9.394a1.936,1.936,0,0,0-2.208.356l-1.944-.972a1.93,1.93,0,0,0,.024-.239,1.971,1.971,0,1,0-1.971,1.971Zm0,0" transform="translate(-29.642 0)" fill="#ee7421"/>
      <path id="Path_2603" data-name="Path 2603" d="M21.764,164.539h-.7V150.657a.657.657,0,0,0-.657-.657H17.779a.657.657,0,0,0-.657.657v13.882H15.809V154.6a.657.657,0,0,0-.657-.657H12.524a.657.657,0,0,0-.657.657v9.941H10.554v-4.686A.657.657,0,0,0,9.9,159.2H7.269a.657.657,0,0,0-.657.657v4.686H5.3v-7.313a.657.657,0,0,0-.657-.657H2.014a.657.657,0,0,0-.657.657v7.313h-.7a.657.657,0,1,0,0,1.314H21.764a.657.657,0,1,0,0-1.314Zm0,0" transform="translate(0 -143.431)" fill="#ee7421"/>
    </g>
  </g>
</svg>
