<svg xmlns="http://www.w3.org/2000/svg" width="82.281" height="82.281" viewBox="0 0 82.281 82.281"><defs><style>.a{fill:#aaaaa8;}</style></defs><path class="a" d="M82.281,41.141A41.141,41.141,0,1,0,13.353,71.447l-.039.034,1.334,1.125c.087.073.181.133.268.2.709.588,1.444,1.146,2.192,1.686.242.175.485.35.732.521q1.2.826,2.456,1.568c.183.108.367.212.551.317.917.522,1.854,1.014,2.813,1.466.07.033.142.063.212.1a40.771,40.771,0,0,0,9.95,3.149l.275.049c1.083.187,2.178.337,3.287.437.135.012.269.019.405.031,1.1.091,2.22.15,3.351.15s2.226-.058,3.324-.147c.139-.012.278-.019.417-.031q1.649-.15,3.258-.429c.093-.016.187-.033.28-.051a40.768,40.768,0,0,0,9.809-3.074c.114-.052.229-.1.343-.156q1.385-.651,2.709-1.4.33-.186.657-.378c.8-.474,1.6-.969,2.365-1.5.277-.188.548-.387.821-.585.657-.473,1.3-.96,1.928-1.471.139-.112.289-.209.425-.325L68.847,71.6l-.04-.034A41.034,41.034,0,0,0,82.281,41.141Zm-79.289,0A38.149,38.149,0,1,1,66.44,69.659a11.212,11.212,0,0,0-1.336-.8L52.437,62.523a3.316,3.316,0,0,1-1.843-2.982V55.118c.293-.362.6-.772.923-1.222a30.486,30.486,0,0,0,3.914-7.664,5.429,5.429,0,0,0,3.119-4.92v-5.3a5.443,5.443,0,0,0-1.327-3.544V25.482a12.065,12.065,0,0,0-2.817-8.773c-2.757-3.148-7.22-4.741-13.265-4.741s-10.508,1.593-13.265,4.739a12.068,12.068,0,0,0-2.817,8.773v6.982a5.451,5.451,0,0,0-1.327,3.544v5.3a5.442,5.442,0,0,0,2,4.22,28.11,28.11,0,0,0,4.627,9.558v4.329a3.337,3.337,0,0,1-1.738,2.929L16.8,68.8a10.811,10.811,0,0,0-1.125.712A38.057,38.057,0,0,1,2.992,41.141Z"/></svg>