<svg xmlns="http://www.w3.org/2000/svg" width="24.143" height="22.685" viewBox="0 0 24.143 22.685"><defs><style>.a{fill:#255ca0;}</style></defs><path class="a" d="M24.143,10.944A1.944,1.944,0,0,0,22.2,9H1.944A1.944,1.944,0,0,0,0,10.944v18.8a1.944,1.944,0,0,0,1.944,1.944H22.2a1.944,1.944,0,0,0,1.944-1.944Zm-16.771.486h3.484v2.755H7.373ZM4.942,29.255H2.431V26.5H4.942Zm0-15.069H2.431V11.431H4.942Zm5.914,15.069H7.373V26.5h3.484Zm-.891-6.667V18.1c0-.668.475-.916,1.035-.55l3.26,2.129a.738.738,0,0,1,0,1.331L11,23.137C10.438,23.5,9.965,23.256,9.965,22.587Zm6.806,6.667H13.287V26.5h3.484Zm0-15.069H13.287V11.431h3.484Zm4.942,15.069H19.2V26.5h2.512Zm0-15.069H19.2V11.431h2.512Z" transform="translate(0 -9)"/></svg>