<svg xmlns="http://www.w3.org/2000/svg" width="45" height="46" viewBox="0 0 45 46">
  <g id="Group_796" data-name="Group 796" transform="translate(-15 -1086)">
    <ellipse id="Ellipse_390" data-name="Ellipse 390" cx="22.5" cy="23" rx="22.5" ry="23" transform="translate(15 1086)" fill="#f0eaf8"/>
    <path id="video-player" d="M21.978,10.77A1.77,1.77,0,0,0,20.208,9H1.77A1.77,1.77,0,0,0,0,10.77V27.88a1.77,1.77,0,0,0,1.77,1.77H20.208a1.77,1.77,0,0,0,1.77-1.77Zm-15.267.443H9.883V13.72H6.711ZM4.5,27.438H2.213V24.93H4.5Zm0-13.718H2.213V11.213H4.5ZM9.883,27.438H6.711V24.93H9.883Zm-.811-6.069V17.282c0-.608.433-.834.942-.5l2.968,1.938a.672.672,0,0,1,0,1.212l-2.974,1.938C9.5,22.2,9.071,21.977,9.071,21.369Zm6.2,6.069H12.1V24.93h3.171Zm0-13.718H12.1V11.213h3.171Zm4.5,13.718H17.479V24.93h2.286Zm0-13.718H17.479V11.213h2.286Z" transform="translate(26.995 1089.87)" fill="#9e5bc8"/>
  </g>
</svg>
